<svg xmlns="http://www.w3.org/2000/svg" width="900" height="360" viewBox="0 0 900 360">
  <defs>
    <linearGradient id="bg" x1="0%" y1="0%" x2="100%" y2="100%">
      <stop offset="0%" style="stop-color:#0a0e17"/>
      <stop offset="100%" style="stop-color:#111827"/>
    </linearGradient>
    <linearGradient id="scanLine" x1="0%" y1="0%" x2="100%" y2="0%">
      <stop offset="0%" style="stop-color:#00d4aa;stop-opacity:0"/>
      <stop offset="50%" style="stop-color:#00d4aa;stop-opacity:0.6"/>
      <stop offset="100%" style="stop-color:#00d4aa;stop-opacity:0"/>
    </linearGradient>
    <linearGradient id="glow" x1="0%" y1="0%" x2="0%" y2="100%">
      <stop offset="0%" style="stop-color:#00d4aa;stop-opacity:0.15"/>
      <stop offset="100%" style="stop-color:#00d4aa;stop-opacity:0"/>
    </linearGradient>
    <filter id="blur">
      <feGaussianBlur in="SourceGraphic" stdDeviation="2"/>
    </filter>
    <filter id="glowFilter">
      <feGaussianBlur in="SourceGraphic" stdDeviation="4"/>
      <feComposite in="SourceGraphic"/>
    </filter>
  </defs>

  <!-- Background -->
  <rect width="900" height="360" fill="url(#bg)" rx="12"/>

  <!-- Grid pattern -->
  <g opacity="0.06" stroke="#00d4aa" stroke-width="0.5">
    <line x1="0" y1="0" x2="0" y2="360"/><line x1="50" y1="0" x2="50" y2="360"/>
    <line x1="100" y1="0" x2="100" y2="360"/><line x1="150" y1="0" x2="150" y2="360"/>
    <line x1="200" y1="0" x2="200" y2="360"/><line x1="250" y1="0" x2="250" y2="360"/>
    <line x1="300" y1="0" x2="300" y2="360"/><line x1="350" y1="0" x2="350" y2="360"/>
    <line x1="400" y1="0" x2="400" y2="360"/><line x1="450" y1="0" x2="450" y2="360"/>
    <line x1="500" y1="0" x2="500" y2="360"/><line x1="550" y1="0" x2="550" y2="360"/>
    <line x1="600" y1="0" x2="600" y2="360"/><line x1="650" y1="0" x2="650" y2="360"/>
    <line x1="700" y1="0" x2="700" y2="360"/><line x1="750" y1="0" x2="750" y2="360"/>
    <line x1="800" y1="0" x2="800" y2="360"/><line x1="850" y1="0" x2="850" y2="360"/>
    <line x1="900" y1="0" x2="900" y2="360"/>
    <line x1="0" y1="0" x2="900" y2="0"/><line x1="0" y1="50" x2="900" y2="50"/>
    <line x1="0" y1="100" x2="900" y2="100"/><line x1="0" y1="150" x2="900" y2="150"/>
    <line x1="0" y1="200" x2="900" y2="200"/><line x1="0" y1="250" x2="900" y2="250"/>
    <line x1="0" y1="300" x2="900" y2="300"/><line x1="0" y1="350" x2="900" y2="350"/>
  </g>

  <!-- Scan lines (x-ray effect) -->
  <rect x="0" y="120" width="900" height="1" fill="url(#scanLine)" opacity="0.4"/>
  <rect x="0" y="180" width="900" height="2" fill="url(#scanLine)" opacity="0.6"/>
  <rect x="0" y="240" width="900" height="1" fill="url(#scanLine)" opacity="0.3"/>

  <!-- Vertical scan glow -->
  <rect x="280" y="0" width="340" height="360" fill="url(#glow)"/>

  <!-- Composition tree diagram (left side) -->
  <g transform="translate(60, 80)" opacity="0.3" stroke="#00d4aa" stroke-width="1.5" fill="none">
    <!-- Root node -->
    <rect x="0" y="0" width="120" height="28" rx="4" stroke="#00d4aa" stroke-width="1"/>
    <rect x="0" y="0" width="120" height="28" rx="4" fill="#00d4aa" opacity="0.08"/>
    <text x="60" y="18" text-anchor="middle" fill="#00d4aa" font-family="monospace" font-size="11">dsh-root</text>
    <!-- Branches -->
    <line x1="60" y1="28" x2="30" y2="60"/>
    <line x1="60" y1="28" x2="60" y2="60"/>
    <line x1="60" y1="28" x2="90" y2="60"/>
    <!-- Child nodes -->
    <rect x="0" y="60" width="60" height="22" rx="3" stroke="#00d4aa" stroke-width="1"/>
    <text x="30" y="75" text-anchor="middle" fill="#00d4aa" font-family="monospace" font-size="9">kernel</text>
    <rect x="30" y="60" width="60" height="22" rx="3" stroke="#00d4aa" stroke-width="1"/>
    <text x="60" y="75" text-anchor="middle" fill="#00d4aa" font-family="monospace" font-size="9">profile</text>
    <rect x="60" y="60" width="60" height="22" rx="3" stroke="#00d4aa" stroke-width="1"/>
    <text x="90" y="75" text-anchor="middle" fill="#00d4aa" font-family="monospace" font-size="9">plugin</text>
    <!-- Deeper branches -->
    <line x1="30" y1="82" x2="15" y2="110"/>
    <line x1="30" y1="82" x2="45" y2="110"/>
    <line x1="90" y1="82" x2="75" y2="110"/>
    <line x1="90" y1="82" x2="105" y2="110"/>
    <rect x="0" y="110" width="30" height="18" rx="2" stroke="#00d4aa" stroke-width="1"/>
    <text x="15" y="123" text-anchor="middle" fill="#00d4aa" font-family="monospace" font-size="8">svc</text>
    <rect x="30" y="110" width="30" height="18" rx="2" stroke="#00d4aa" stroke-width="1"/>
    <text x="45" y="123" text-anchor="middle" fill="#00d4aa" font-family="monospace" font-size="8">cfg</text>
    <rect x="60" y="110" width="30" height="18" rx="2" stroke="#00d4aa" stroke-width="1"/>
    <text x="75" y="123" text-anchor="middle" fill="#00d4aa" font-family="monospace" font-size="8">dep</text>
    <rect x="90" y="110" width="30" height="18" rx="2" stroke="#00d4aa" stroke-width="1"/>
    <text x="105" y="123" text-anchor="middle" fill="#00d4aa" font-family="monospace" font-size="8">ext</text>
  </g>

  <!-- Scan pulse ring (right side) -->
  <g transform="translate(730, 160)">
    <circle cx="0" cy="0" r="30" fill="none" stroke="#00d4aa" stroke-width="1" opacity="0.15"/>
    <circle cx="0" cy="0" r="50" fill="none" stroke="#00d4aa" stroke-width="0.5" opacity="0.1"/>
    <circle cx="0" cy="0" r="70" fill="none" stroke="#00d4aa" stroke-width="0.5" opacity="0.06"/>
    <circle cx="0" cy="0" r="12" fill="#00d4aa" opacity="0.08" filter="url(#glowFilter)"/>
    <circle cx="0" cy="0" r="5" fill="#00d4aa" opacity="0.4"/>
    <!-- Data points around the scan -->
    <circle cx="45" cy="-25" r="3" fill="#00d4aa" opacity="0.3"/>
    <circle cx="-35" cy="40" r="2" fill="#00d4aa" opacity="0.25"/>
    <circle cx="60" cy="15" r="2.5" fill="#00d4aa" opacity="0.2"/>
    <circle cx="-20" cy="-55" r="2" fill="#00d4aa" opacity="0.2"/>
    <circle cx="30" cy="50" r="3" fill="#00d4aa" opacity="0.15"/>
    <!-- Connection lines -->
    <line x1="5" y1="-5" x2="45" y2="-25" stroke="#00d4aa" stroke-width="0.5" opacity="0.2"/>
    <line x1="-5" y1="5" x2="-35" y2="40" stroke="#00d4aa" stroke-width="0.5" opacity="0.2"/>
    <line x1="8" y1="0" x2="60" y2="15" stroke="#00d4aa" stroke-width="0.5" opacity="0.2"/>
  </g>

  <!-- Category label -->
  <text x="450" y="80" text-anchor="middle" fill="#00d4aa" font-family="'SF Mono', 'Fira Code', 'Cascadia Code', monospace" font-size="13" letter-spacing="4" opacity="0.7">DIAGNOSTIC IMAGING</text>

  <!-- Main title -->
  <text x="450" y="140" text-anchor="middle" fill="#ffffff" font-family="'Inter', 'SF Pro Display', -apple-system, sans-serif" font-size="56" font-weight="700" letter-spacing="-1">dsh-xray</text>

  <!-- Subtitle -->
  <text x="450" y="178" text-anchor="middle" fill="#94a3b8" font-family="'Inter', -apple-system, sans-serif" font-size="18" font-weight="400">X-ray for your DeepSeek Harness</text>

  <!-- Tagline -->
  <text x="450" y="215" text-anchor="middle" fill="#64748b" font-family="'Inter', -apple-system, sans-serif" font-size="14">see what's actually loaded, why, and what it costs you</text>

  <!-- Status badge -->
  <g transform="translate(450, 250)">
    <rect x="-100" y="-12" width="200" height="24" rx="12" fill="#00d4aa" opacity="0.1" stroke="#00d4aa" stroke-width="0.5" stroke-opacity="0.3"/>
    <text x="0" y="4" text-anchor="middle" fill="#00d4aa" font-family="'SF Mono', monospace" font-size="11">static + runtime imaging</text>
  </g>

  <!-- Feature pills -->
  <g transform="translate(450, 295)">
    <g transform="translate(-220, 0)">
      <rect x="-40" y="-10" width="80" height="20" rx="10" fill="#1e293b" stroke="#334155" stroke-width="0.5"/>
      <text x="0" y="4" text-anchor="middle" fill="#94a3b8" font-family="'SF Mono', monospace" font-size="10">attribute</text>
    </g>
    <g transform="translate(-110, 0)">
      <rect x="-40" y="-10" width="80" height="20" rx="10" fill="#1e293b" stroke="#334155" stroke-width="0.5"/>
      <text x="0" y="4" text-anchor="middle" fill="#94a3b8" font-family="'SF Mono', monospace" font-size="10">conflicts</text>
    </g>
    <g transform="translate(0, 0)">
      <rect x="-40" y="-10" width="80" height="20" rx="10" fill="#1e293b" stroke="#334155" stroke-width="0.5"/>
      <text x="0" y="4" text-anchor="middle" fill="#94a3b8" font-family="'SF Mono', monospace" font-size="10">snapshot</text>
    </g>
    <g transform="translate(110, 0)">
      <rect x="-40" y="-10" width="80" height="20" rx="10" fill="#1e293b" stroke="#334155" stroke-width="0.5"/>
      <text x="0" y="4" text-anchor="middle" fill="#94a3b8" font-family="'SF Mono', monospace" font-size="10">health</text>
    </g>
    <g transform="translate(220, 0)">
      <rect x="-40" y="-10" width="80" height="20" rx="10" fill="#1e293b" stroke="#334155" stroke-width="0.5"/>
      <text x="0" y="4" text-anchor="middle" fill="#94a3b8" font-family="'SF Mono', monospace" font-size="10">cost</text>
    </g>
  </g>

  <!-- Corner accent lines -->
  <line x1="20" y1="20" x2="60" y2="20" stroke="#00d4aa" stroke-width="1" opacity="0.3"/>
  <line x1="20" y1="20" x2="20" y2="60" stroke="#00d4aa" stroke-width="1" opacity="0.3"/>
  <line x1="880" y1="20" x2="840" y2="20" stroke="#00d4aa" stroke-width="1" opacity="0.3"/>
  <line x1="880" y1="20" x2="880" y2="60" stroke="#00d4aa" stroke-width="1" opacity="0.3"/>
  <line x1="20" y1="340" x2="60" y2="340" stroke="#00d4aa" stroke-width="1" opacity="0.3"/>
  <line x1="20" y1="340" x2="20" y2="300" stroke="#00d4aa" stroke-width="1" opacity="0.3"/>
  <line x1="880" y1="340" x2="840" y2="340" stroke="#00d4aa" stroke-width="1" opacity="0.3"/>
  <line x1="880" y1="340" x2="880" y2="300" stroke="#00d4aa" stroke-width="1" opacity="0.3"/>
</svg>
